<svg id="Layer_1" data-name="Layer 1" xmlns="http://www.w3.org/2000/svg" xmlns:xlink="http://www.w3.org/1999/xlink" viewBox="0 0 1842.68 788.34"><defs><style>.cls-1{fill:url(#linear-gradient);}.cls-2{mask:url(#mask);}.cls-3{opacity:0.3;}.cls-4{fill:none;stroke:#ddd;stroke-miterlimit:10;}</style><linearGradient id="linear-gradient" x1="1005.1" y1="63.15" x2="1005.1" y2="367.39" gradientUnits="userSpaceOnUse"><stop offset="0.51" stop-color="#fff"/><stop offset="1"/></linearGradient><mask id="mask" x="-26.28" y="0" width="1888.18" height="788.34" maskUnits="userSpaceOnUse"><g transform="translate(-87.29 -62.06)"><rect class="cls-1" x="61.01" y="63.15" width="1888.18" height="304.23"/></g></mask></defs><title>bg-grid2</title><g class="cls-2"><g class="cls-3"><polygon class="cls-4" points="1662.13 583.35 1588.42 626.53 1641.07 711.83 1662.13 583.35"/><polygon class="cls-4" points="1049.22 308.49 1038.69 289.53 968.13 368.51 1049.22 308.49"/><polygon class="cls-4" points="1056.6 411.69 1049.22 343.24 968.13 368.51 1056.6 411.69"/><polygon class="cls-4" points="1811.68 58.9 1727.43 69.43 1777.98 228.45 1811.68 58.9"/><polygon class="cls-4" points="1840.11 498.05 1712.68 453.82 1736.9 571.76 1840.11 498.05"/><polygon class="cls-4" points="1840.11 365.36 1811.68 58.9 1777.98 228.45 1840.11 365.36"/><polygon class="cls-4" points="1840.11 365.36 1777.98 228.45 1802.2 324.28 1840.11 365.36"/><polygon class="cls-4" points="1838 399.06 1816.94 354.82 1766.39 372.73 1838 399.06"/><polygon class="cls-4" points="1816.94 354.82 1802.2 324.28 1766.39 372.73 1816.94 354.82"/><polygon class="cls-4" points="1811.68 58.9 1765.34 0.98 1727.43 69.43 1811.68 58.9"/><polygon class="cls-4" points="1802.2 324.28 1777.98 228.45 1726.37 386.42 1802.2 324.28"/><polygon class="cls-4" points="1802.2 324.28 1726.37 386.42 1766.39 372.73 1802.2 324.28"/><polygon class="cls-4" points="1766.39 372.73 1726.37 386.42 1761.13 424.33 1766.39 372.73"/><polygon class="cls-4" points="1761.13 424.33 1726.37 386.42 1712.68 453.82 1761.13 424.33"/><polygon class="cls-4" points="1538.92 693.93 1419.92 685.5 1501.01 776.07 1538.92 693.93"/><polygon class="cls-4" points="1419.92 685.5 1325.14 703.4 1400.96 776.07 1419.92 685.5"/><polygon class="cls-4" points="1377.79 785.55 1325.14 703.4 1205.08 785.55 1377.79 785.55"/><polygon class="cls-4" points="1205.08 785.55 1147.16 730.78 1006.04 751.85 1205.08 785.55"/><polygon class="cls-4" points="1205.08 785.55 1174.54 700.25 1147.16 730.78 1205.08 785.55"/><polygon class="cls-4" points="1045.01 632.85 952.34 696.03 1006.04 751.85 1045.01 632.85"/><polygon class="cls-4" points="1056.6 411.69 968.13 368.51 1015.52 435.91 1056.6 411.69"/><polygon class="cls-4" points="1777.98 228.45 1727.43 69.43 1672.67 151.57 1777.98 228.45"/><polygon class="cls-4" points="1777.98 228.45 1636.86 355.88 1726.37 386.42 1777.98 228.45"/><polygon class="cls-4" points="1777.98 228.45 1672.67 151.57 1601.05 263.2 1777.98 228.45"/><polygon class="cls-4" points="1712.68 453.82 1664.24 469.61 1675.82 561.23 1712.68 453.82"/><polygon class="cls-4" points="1726.37 386.42 1636.86 355.88 1658.97 394.84 1726.37 386.42"/><polygon class="cls-4" points="1726.37 386.42 1658.97 394.84 1712.68 453.82 1726.37 386.42"/><polygon class="cls-4" points="1727.43 69.43 1660.03 79.96 1672.67 151.57 1727.43 69.43"/><polygon class="cls-4" points="1736.9 571.76 1662.13 583.35 1721.11 661.28 1736.9 571.76"/><polygon class="cls-4" points="1672.67 151.57 1660.03 79.96 1641.07 124.19 1672.67 151.57"/><polygon class="cls-4" points="1712.68 453.82 1658.97 394.84 1664.24 469.61 1712.68 453.82"/><polygon class="cls-4" points="1664.24 469.61 1658.97 394.84 1603.16 393.79 1664.24 469.61"/><polygon class="cls-4" points="1664.24 469.61 1603.16 393.79 1578.94 441.18 1664.24 469.61"/><polygon class="cls-4" points="1664.24 469.61 1578.94 441.18 1559.98 593.88 1664.24 469.61"/><polygon class="cls-4" points="1675.82 561.23 1664.24 469.61 1559.98 593.88 1675.82 561.23"/><polygon class="cls-4" points="1578.94 441.18 1510.49 540.17 1559.98 593.88 1578.94 441.18"/><polygon class="cls-4" points="1660.03 79.96 1600 91.55 1641.07 124.19 1660.03 79.96"/><polygon class="cls-4" points="1662.13 583.35 1559.98 593.88 1588.42 626.53 1662.13 583.35"/><polygon class="cls-4" points="1658.97 394.84 1636.86 355.88 1603.16 393.79 1658.97 394.84"/><polygon class="cls-4" points="1636.86 355.88 1601.05 263.2 1557.88 279 1636.86 355.88"/><polygon class="cls-4" points="1636.86 355.88 1567.36 371.67 1603.16 393.79 1636.86 355.88"/><polygon class="cls-4" points="1603.16 393.79 1567.36 371.67 1578.94 441.18 1603.16 393.79"/><polygon class="cls-4" points="1588.42 626.53 1559.98 593.88 1524.18 620.21 1588.42 626.53"/><polygon class="cls-4" points="1578.94 441.18 1567.36 371.67 1553.66 363.25 1578.94 441.18"/><polygon class="cls-4" points="1578.94 441.18 1444.14 422.22 1510.49 540.17 1578.94 441.18"/><polygon class="cls-4" points="1510.49 540.17 1444.14 422.22 1424.13 459.08 1510.49 540.17"/><polygon class="cls-4" points="1559.98 593.88 1510.49 540.17 1524.18 620.21 1559.98 593.88"/><polygon class="cls-4" points="1524.18 620.21 1510.49 540.17 1462.04 560.18 1524.18 620.21"/><polygon class="cls-4" points="1538.92 693.93 1524.18 620.21 1419.92 685.5 1538.92 693.93"/><polygon class="cls-4" points="1510.49 540.17 1424.13 459.08 1462.04 560.18 1510.49 540.17"/><polygon class="cls-4" points="1524.18 620.21 1462.04 560.18 1419.92 594.93 1524.18 620.21"/><polygon class="cls-4" points="1524.18 620.21 1419.92 594.93 1419.92 685.5 1524.18 620.21"/><polygon class="cls-4" points="1462.04 560.18 1424.13 459.08 1385.17 517 1462.04 560.18"/><polygon class="cls-4" points="1419.92 685.5 1419.92 594.93 1405.17 598.09 1419.92 685.5"/><polygon class="cls-4" points="1462.04 560.18 1385.17 517 1419.92 594.93 1462.04 560.18"/><polygon class="cls-4" points="1419.92 594.93 1385.17 517 1405.17 598.09 1419.92 594.93"/><polygon class="cls-4" points="1419.92 685.5 1405.17 598.09 1360.94 666.54 1419.92 685.5"/><polygon class="cls-4" points="1419.92 685.5 1360.94 666.54 1325.14 703.4 1419.92 685.5"/><polygon class="cls-4" points="1424.13 459.08 1395.7 451.71 1385.17 517 1424.13 459.08"/><polygon class="cls-4" points="1405.17 598.09 1385.17 517 1355.68 520.16 1405.17 598.09"/><polygon class="cls-4" points="1405.17 598.09 1355.68 520.16 1339.88 594.93 1405.17 598.09"/><polygon class="cls-4" points="1405.17 598.09 1339.88 594.93 1360.94 666.54 1405.17 598.09"/><polygon class="cls-4" points="1355.68 520.16 1286.17 533.85 1339.88 594.93 1355.68 520.16"/><polygon class="cls-4" points="1355.68 520.16 1334.62 506.47 1286.17 533.85 1355.68 520.16"/><polygon class="cls-4" points="1360.94 666.54 1339.88 594.93 1325.14 703.4 1360.94 666.54"/><polygon class="cls-4" points="1339.88 594.93 1212.45 658.12 1325.14 703.4 1339.88 594.93"/><polygon class="cls-4" points="1339.88 594.93 1286.17 533.85 1212.45 658.12 1339.88 594.93"/><polygon class="cls-4" points="1334.62 506.47 1269.32 496.99 1286.17 533.85 1334.62 506.47"/><polygon class="cls-4" points="1325.14 703.4 1210.35 681.29 1205.08 785.55 1325.14 703.4"/><polygon class="cls-4" points="1325.14 703.4 1212.45 658.12 1210.35 681.29 1325.14 703.4"/><polygon class="cls-4" points="1286.17 533.85 1269.32 496.99 1137.68 545.44 1286.17 533.85"/><polygon class="cls-4" points="1286.17 533.85 1137.68 545.44 1212.45 658.12 1286.17 533.85"/><polygon class="cls-4" points="1210.35 681.29 1174.54 700.25 1205.08 785.55 1210.35 681.29"/><polygon class="cls-4" points="1174.54 700.25 1137.68 545.44 1045.01 632.85 1174.54 700.25"/><polygon class="cls-4" points="1212.45 658.12 1174.54 700.25 1210.35 681.29 1212.45 658.12"/><polygon class="cls-4" points="1212.45 658.12 1137.68 545.44 1174.54 700.25 1212.45 658.12"/><polygon class="cls-4" points="1137.68 545.44 1113.46 540.17 1045.01 632.85 1137.68 545.44"/><polygon class="cls-4" points="1174.54 700.25 1045.01 632.85 1147.16 730.78 1174.54 700.25"/><polygon class="cls-4" points="1147.16 730.78 1045.01 632.85 1006.04 751.85 1147.16 730.78"/><polygon class="cls-4" points="1130.31 38.89 1031.32 13.62 1034.48 82.07 1130.31 38.89"/><polygon class="cls-4" points="1113.46 540.17 1073.44 487.52 980.77 546.49 1113.46 540.17"/><polygon class="cls-4" points="1113.46 540.17 980.77 546.49 1045.01 632.85 1113.46 540.17"/><polygon class="cls-4" points="1073.44 487.52 1015.52 435.91 980.77 546.49 1073.44 487.52"/><polygon class="cls-4" points="1034.48 82.07 1031.32 13.62 987.09 82.07 1034.48 82.07"/><polygon class="cls-4" points="1045.01 632.85 944.97 683.39 952.34 696.03 1045.01 632.85"/><polygon class="cls-4" points="1045.01 632.85 980.77 546.49 931.27 593.88 1045.01 632.85"/><polygon class="cls-4" points="1045.01 632.85 931.27 593.88 944.97 683.39 1045.01 632.85"/><polygon class="cls-4" points="1031.32 13.62 957.6 48.37 987.09 82.07 1031.32 13.62"/><polygon class="cls-4" points="1038.69 289.53 1004.99 217.92 897.58 304.27 1038.69 289.53"/><polygon class="cls-4" points="1038.69 289.53 897.58 304.27 968.13 368.51 1038.69 289.53"/><polygon class="cls-4" points="1031.32 13.62 955.5 7.3 957.6 48.37 1031.32 13.62"/><polygon class="cls-4" points="1004.99 217.92 987.09 82.07 853.34 204.23 1004.99 217.92"/><polygon class="cls-4" points="1015.52 435.91 887.04 404.32 980.77 546.49 1015.52 435.91"/><polygon class="cls-4" points="1015.52 435.91 968.13 368.51 887.04 404.32 1015.52 435.91"/><polygon class="cls-4" points="980.77 546.49 887.04 404.32 844.92 486.46 980.77 546.49"/><polygon class="cls-4" points="1004.99 217.92 853.34 204.23 897.58 304.27 1004.99 217.92"/><polygon class="cls-4" points="987.09 82.07 957.6 48.37 853.34 204.23 987.09 82.07"/><polygon class="cls-4" points="980.77 546.49 844.92 486.46 931.27 593.88 980.77 546.49"/><polygon class="cls-4" points="957.6 48.37 851.24 15.72 853.34 204.23 957.6 48.37"/><polygon class="cls-4" points="968.13 368.51 897.58 304.27 861.77 350.61 968.13 368.51"/><polygon class="cls-4" points="968.13 368.51 861.77 350.61 887.04 404.32 968.13 368.51"/><polygon class="cls-4" points="957.6 48.37 894.41 3.08 851.24 15.72 957.6 48.37"/><polygon class="cls-4" points="957.6 48.37 955.5 7.3 894.41 3.08 957.6 48.37"/><polygon class="cls-4" points="944.97 683.39 931.27 593.88 908.11 710.78 944.97 683.39"/><polygon class="cls-4" points="931.27 593.88 772.25 706.56 908.11 710.78 931.27 593.88"/><polygon class="cls-4" points="853.34 204.23 851.24 15.72 773.31 43.1 853.34 204.23"/><polygon class="cls-4" points="931.27 593.88 728.02 619.15 772.25 706.56 931.27 593.88"/><polygon class="cls-4" points="931.27 593.88 741.71 558.07 728.02 619.15 931.27 593.88"/><polygon class="cls-4" points="931.27 593.88 844.92 486.46 741.71 558.07 931.27 593.88"/><polygon class="cls-4" points="897.58 304.27 753.3 303.22 861.77 350.61 897.58 304.27"/><polygon class="cls-4" points="897.58 304.27 853.34 204.23 753.3 303.22 897.58 304.27"/><polygon class="cls-4" points="853.34 204.23 773.31 43.1 716.44 114.71 853.34 204.23"/><polygon class="cls-4" points="844.92 486.46 799.64 482.25 741.71 558.07 844.92 486.46"/><polygon class="cls-4" points="887.04 404.32 861.77 350.61 789.11 408.53 887.04 404.32"/><polygon class="cls-4" points="887.04 404.32 789.11 408.53 844.92 486.46 887.04 404.32"/><polygon class="cls-4" points="844.92 486.46 789.11 408.53 799.64 482.25 844.92 486.46"/><polygon class="cls-4" points="853.34 204.23 716.44 114.71 706.96 134.72 853.34 204.23"/><polygon class="cls-4" points="861.77 350.61 752.25 344.29 789.11 408.53 861.77 350.61"/><polygon class="cls-4" points="861.77 350.61 753.3 303.22 752.25 344.29 861.77 350.61"/><polygon class="cls-4" points="853.34 204.23 706.96 134.72 753.3 303.22 853.34 204.23"/><polygon class="cls-4" points="799.64 482.25 789.11 408.53 725.92 502.26 799.64 482.25"/><polygon class="cls-4" points="799.64 482.25 725.92 502.26 741.71 558.07 799.64 482.25"/><polygon class="cls-4" points="789.11 408.53 752.25 344.29 702.75 370.62 789.11 408.53"/><polygon class="cls-4" points="789.11 408.53 702.75 370.62 725.92 502.26 789.11 408.53"/><polygon class="cls-4" points="753.3 303.22 706.96 134.72 605.86 189.49 753.3 303.22"/><polygon class="cls-4" points="741.71 558.07 725.92 502.26 682.74 560.18 741.71 558.07"/><polygon class="cls-4" points="702.75 370.62 606.92 349.56 622.71 451.71 702.75 370.62"/><polygon class="cls-4" points="601.65 785.55 220.42 782.39 83.52 785.55 601.65 785.55"/><polygon class="cls-4" points="920.74 785.55 748.03 781.33 619.55 785.55 920.74 785.55"/><polygon class="cls-4" points="1632.65 784.49 1501.01 776.07 1377.79 785.55 1632.65 784.49"/><polygon class="cls-4" points="1821.15 785.55 1732.69 758.17 1632.65 784.49 1821.15 785.55"/><polygon class="cls-4" points="1838 399.06 1810.62 440.13 1828.53 436.97 1838 399.06"/><polygon class="cls-4" points="1838 399.06 1828.53 436.97 1831.69 444.34 1838 399.06"/><polygon class="cls-4" points="1840.11 765.54 1788.51 741.32 1821.15 785.55 1840.11 765.54"/><polygon class="cls-4" points="1840.11 634.95 1793.77 586.51 1771.66 672.86 1840.11 634.95"/><polygon class="cls-4" points="1840.11 649.7 1840.11 634.95 1771.66 672.86 1840.11 649.7"/><polygon class="cls-4" points="1840.11 498.05 1810.62 440.13 1712.68 453.82 1840.11 498.05"/><polygon class="cls-4" points="1840.11 498.05 1736.9 571.76 1793.77 586.51 1840.11 498.05"/><polygon class="cls-4" points="1840.11 498.05 1831.69 444.34 1810.62 440.13 1840.11 498.05"/><polygon class="cls-4" points="1840.11 718.15 1788.51 720.25 1788.51 741.32 1840.11 718.15"/><polygon class="cls-4" points="1840.11 718.15 1771.66 672.86 1788.51 720.25 1840.11 718.15"/><polygon class="cls-4" points="1840.11 365.36 1802.2 324.28 1816.94 354.82 1840.11 365.36"/><polygon class="cls-4" points="1840.11 365.36 1816.94 354.82 1838 399.06 1840.11 365.36"/><polygon class="cls-4" points="1838 399.06 1766.39 372.73 1810.62 440.13 1838 399.06"/><polygon class="cls-4" points="1810.62 440.13 1761.13 424.33 1712.68 453.82 1810.62 440.13"/><polygon class="cls-4" points="1810.62 440.13 1766.39 372.73 1761.13 424.33 1810.62 440.13"/><polygon class="cls-4" points="1831.69 444.34 1828.53 436.97 1810.62 440.13 1831.69 444.34"/><polygon class="cls-4" points="1821.15 785.55 1788.51 741.32 1732.69 758.17 1821.15 785.55"/><polygon class="cls-4" points="1793.77 586.51 1721.11 661.28 1771.66 672.86 1793.77 586.51"/><polygon class="cls-4" points="1793.77 586.51 1736.9 571.76 1721.11 661.28 1793.77 586.51"/><polygon class="cls-4" points="1788.51 741.32 1722.16 737.1 1732.69 758.17 1788.51 741.32"/><polygon class="cls-4" points="1788.51 720.25 1722.16 737.1 1788.51 741.32 1788.51 720.25"/><polygon class="cls-4" points="1788.51 720.25 1771.66 672.86 1722.16 737.1 1788.51 720.25"/><polygon class="cls-4" points="1771.66 672.86 1702.15 688.66 1722.16 737.1 1771.66 672.86"/><polygon class="cls-4" points="1771.66 672.86 1721.11 661.28 1702.15 688.66 1771.66 672.86"/><polygon class="cls-4" points="1761.13 424.33 1726.37 386.42 1712.68 453.82 1761.13 424.33"/><polygon class="cls-4" points="1732.69 758.17 1669.51 740.26 1632.65 784.49 1732.69 758.17"/><polygon class="cls-4" points="1732.69 758.17 1722.16 737.1 1669.51 740.26 1732.69 758.17"/><polygon class="cls-4" points="1722.16 737.1 1702.15 688.66 1669.51 740.26 1722.16 737.1"/><polygon class="cls-4" points="1702.15 688.66 1641.07 711.83 1669.51 740.26 1702.15 688.66"/><polygon class="cls-4" points="1669.51 740.26 1641.07 711.83 1632.65 784.49 1669.51 740.26"/><polygon class="cls-4" points="1641.07 711.83 1543.13 728.68 1632.65 784.49 1641.07 711.83"/><polygon class="cls-4" points="1641.07 711.83 1552.61 687.61 1543.13 728.68 1641.07 711.83"/><polygon class="cls-4" points="1632.65 784.49 1543.13 728.68 1501.01 776.07 1632.65 784.49"/><polygon class="cls-4" points="1501.01 776.07 1400.96 776.07 1377.79 785.55 1501.01 776.07"/><polygon class="cls-4" points="1552.61 687.61 1538.92 693.93 1543.13 728.68 1552.61 687.61"/><polygon class="cls-4" points="1543.13 728.68 1538.92 693.93 1501.01 776.07 1543.13 728.68"/><polygon class="cls-4" points="1501.01 776.07 1419.92 685.5 1400.96 776.07 1501.01 776.07"/><polygon class="cls-4" points="1400.96 776.07 1325.14 703.4 1377.79 785.55 1400.96 776.07"/><polygon class="cls-4" points="1205.08 785.55 1000.78 757.11 920.74 785.55 1205.08 785.55"/><polygon class="cls-4" points="1205.08 785.55 1006.04 751.85 1000.78 757.11 1205.08 785.55"/><polygon class="cls-4" points="920.74 785.55 883.88 776.07 748.03 781.33 920.74 785.55"/><polygon class="cls-4" points="1034.48 82.07 987.09 82.07 1004.99 217.92 1034.48 82.07"/><polygon class="cls-4" points="1049.22 343.24 1049.22 308.49 968.13 368.51 1049.22 343.24"/><polygon class="cls-4" points="1000.78 757.11 952.34 696.03 937.59 710.78 1000.78 757.11"/><polygon class="cls-4" points="1006.04 751.85 952.34 696.03 1000.78 757.11 1006.04 751.85"/><polygon class="cls-4" points="1000.78 757.11 937.59 710.78 920.74 785.55 1000.78 757.11"/><polygon class="cls-4" points="937.59 710.78 908.11 710.78 920.74 785.55 937.59 710.78"/><polygon class="cls-4" points="952.34 696.03 944.97 683.39 937.59 710.78 952.34 696.03"/><polygon class="cls-4" points="920.74 785.55 908.11 710.78 883.88 776.07 920.74 785.55"/><polygon class="cls-4" points="944.97 683.39 908.11 710.78 937.59 710.78 944.97 683.39"/><polygon class="cls-4" points="908.11 710.78 772.25 706.56 883.88 776.07 908.11 710.78"/><polygon class="cls-4" points="773.31 43.1 723.81 87.33 716.44 114.71 773.31 43.1"/><polygon class="cls-4" points="883.88 776.07 772.25 706.56 748.03 781.33 883.88 776.07"/><polygon class="cls-4" points="748.03 781.33 631.14 780.28 619.55 785.55 748.03 781.33"/><polygon class="cls-4" points="772.25 706.56 728.02 619.15 726.97 643.38 772.25 706.56"/><polygon class="cls-4" points="601.65 785.55 236.22 775.02 220.42 782.39 601.65 785.55"/><polygon class="cls-4" points="725.92 502.26 702.75 370.62 680.63 486.46 725.92 502.26"/><polygon class="cls-4" points="773.31 43.1 692.22 76.8 723.81 87.33 773.31 43.1"/><polygon class="cls-4" points="773.31 43.1 678.53 62.06 692.22 76.8 773.31 43.1"/><polygon class="cls-4" points="772.25 706.56 623.77 766.59 748.03 781.33 772.25 706.56"/><polygon class="cls-4" points="772.25 706.56 726.97 643.38 623.77 766.59 772.25 706.56"/><polygon class="cls-4" points="748.03 781.33 623.77 766.59 631.14 780.28 748.03 781.33"/><polygon class="cls-4" points="753.3 303.22 606.92 349.56 702.75 370.62 753.3 303.22"/><polygon class="cls-4" points="753.3 303.22 605.86 189.49 606.92 349.56 753.3 303.22"/><polygon class="cls-4" points="753.3 303.22 702.75 370.62 752.25 344.29 753.3 303.22"/><polygon class="cls-4" points="741.71 558.07 682.74 560.18 728.02 619.15 741.71 558.07"/><polygon class="cls-4" points="726.97 643.38 611.13 633.9 623.77 766.59 726.97 643.38"/><polygon class="cls-4" points="702.75 370.62 622.71 451.71 680.63 486.46 702.75 370.62"/><polygon class="cls-4" points="725.92 502.26 661.68 545.44 682.74 560.18 725.92 502.26"/><polygon class="cls-4" points="725.92 502.26 680.63 486.46 661.68 545.44 725.92 502.26"/><polygon class="cls-4" points="728.02 619.15 637.46 601.25 726.97 643.38 728.02 619.15"/><polygon class="cls-4" points="728.02 619.15 682.74 560.18 637.46 601.25 728.02 619.15"/><polygon class="cls-4" points="726.97 643.38 637.46 601.25 611.13 633.9 726.97 643.38"/><polygon class="cls-4" points="723.81 87.33 692.22 76.8 716.44 114.71 723.81 87.33"/><polygon class="cls-4" points="716.44 114.71 692.22 76.8 706.96 134.72 716.44 114.71"/><polygon class="cls-4" points="606.92 349.56 605.86 189.49 544.78 271.63 606.92 349.56"/><polygon class="cls-4" points="706.96 134.72 692.22 76.8 572.16 160 706.96 134.72"/><polygon class="cls-4" points="706.96 134.72 572.16 160 605.86 189.49 706.96 134.72"/><polygon class="cls-4" points="692.22 76.8 678.53 62.06 572.16 160 692.22 76.8"/><polygon class="cls-4" points="678.53 62.06 556.37 83.12 572.16 160 678.53 62.06"/><polygon class="cls-4" points="678.53 62.06 567.95 58.9 556.37 83.12 678.53 62.06"/><polygon class="cls-4" points="680.63 486.46 622.71 451.71 661.68 545.44 680.63 486.46"/><polygon class="cls-4" points="682.74 560.18 661.68 545.44 637.46 601.25 682.74 560.18"/><polygon class="cls-4" points="623.77 766.59 611.13 633.9 570.06 755.01 623.77 766.59"/><polygon class="cls-4" points="661.68 545.44 584.8 577.03 637.46 601.25 661.68 545.44"/><polygon class="cls-4" points="661.68 545.44 622.71 451.71 584.8 577.03 661.68 545.44"/><polygon class="cls-4" points="601.65 785.55 570.06 755.01 236.22 775.02 601.65 785.55"/><polygon class="cls-4" points="622.71 451.71 516.35 542.28 584.8 577.03 622.71 451.71"/><polygon class="cls-4" points="570.06 755.01 343.64 701.3 236.22 775.02 570.06 755.01"/><polygon class="cls-4" points="606.92 349.56 544.78 271.63 554.26 336.92 606.92 349.56"/><polygon class="cls-4" points="622.71 451.71 606.92 349.56 534.25 355.88 622.71 451.71"/><polygon class="cls-4" points="623.77 766.59 570.06 755.01 593.23 770.8 623.77 766.59"/><polygon class="cls-4" points="637.46 601.25 584.8 577.03 611.13 633.9 637.46 601.25"/><polygon class="cls-4" points="631.14 780.28 623.77 766.59 619.55 785.55 631.14 780.28"/><polygon class="cls-4" points="611.13 633.9 559.53 608.62 570.06 755.01 611.13 633.9"/><polygon class="cls-4" points="622.71 451.71 534.25 355.88 482.65 410.64 622.71 451.71"/><polygon class="cls-4" points="623.77 766.59 601.65 785.55 619.55 785.55 623.77 766.59"/><polygon class="cls-4" points="623.77 766.59 593.23 770.8 601.65 785.55 623.77 766.59"/><polygon class="cls-4" points="611.13 633.9 584.8 577.03 559.53 608.62 611.13 633.9"/><polygon class="cls-4" points="622.71 451.71 482.65 410.64 516.35 542.28 622.71 451.71"/><polygon class="cls-4" points="516.35 542.28 482.65 410.64 459.48 455.92 516.35 542.28"/><polygon class="cls-4" points="606.92 349.56 554.26 336.92 534.25 355.88 606.92 349.56"/><polygon class="cls-4" points="572.16 160 502.66 182.11 544.78 271.63 572.16 160"/><polygon class="cls-4" points="605.86 189.49 572.16 160 544.78 271.63 605.86 189.49"/><polygon class="cls-4" points="601.65 785.55 593.23 770.8 570.06 755.01 601.65 785.55"/><polygon class="cls-4" points="570.06 755.01 559.53 608.62 427.89 622.31 570.06 755.01"/><polygon class="cls-4" points="570.06 755.01 427.89 622.31 405.77 667.6 570.06 755.01"/><polygon class="cls-4" points="584.8 577.03 516.35 542.28 559.53 608.62 584.8 577.03"/><polygon class="cls-4" points="559.53 608.62 516.35 542.28 500.55 555.97 559.53 608.62"/><polygon class="cls-4" points="570.06 755.01 405.77 667.6 343.64 701.3 570.06 755.01"/><polygon class="cls-4" points="572.16 160 556.37 83.12 505.82 86.28 572.16 160"/><polygon class="cls-4" points="572.16 160 505.82 86.28 502.66 182.11 572.16 160"/><polygon class="cls-4" points="554.26 336.92 544.78 271.63 508.98 342.19 554.26 336.92"/><polygon class="cls-4" points="567.95 58.9 522.67 73.64 556.37 83.12 567.95 58.9"/><polygon class="cls-4" points="556.37 83.12 522.67 73.64 505.82 86.28 556.37 83.12"/><polygon class="cls-4" points="559.53 608.62 500.55 555.97 427.89 622.31 559.53 608.62"/><polygon class="cls-4" points="554.26 336.92 508.98 342.19 534.25 355.88 554.26 336.92"/><polygon class="cls-4" points="544.78 271.63 426.83 290.58 508.98 342.19 544.78 271.63"/><polygon class="cls-4" points="544.78 271.63 502.66 182.11 426.83 290.58 544.78 271.63"/><polygon class="cls-4" points="505.82 86.28 434.2 152.63 502.66 182.11 505.82 86.28"/><polygon class="cls-4" points="508.98 342.19 426.83 290.58 435.26 323.23 508.98 342.19"/><polygon class="cls-4" points="534.25 355.88 508.98 342.19 482.65 410.64 534.25 355.88"/><polygon class="cls-4" points="502.66 182.11 399.45 204.23 426.83 290.58 502.66 182.11"/><polygon class="cls-4" points="508.98 342.19 465.8 402.21 482.65 410.64 508.98 342.19"/><polygon class="cls-4" points="516.35 542.28 459.48 455.92 500.55 555.97 516.35 542.28"/><polygon class="cls-4" points="500.55 555.97 418.41 610.73 427.89 622.31 500.55 555.97"/><polygon class="cls-4" points="505.82 86.28 419.46 90.49 434.2 152.63 505.82 86.28"/><polygon class="cls-4" points="508.98 342.19 435.26 323.23 465.8 402.21 508.98 342.19"/><polygon class="cls-4" points="500.55 555.97 459.48 455.92 368.91 529.64 500.55 555.97"/><polygon class="cls-4" points="502.66 182.11 434.2 152.63 399.45 204.23 502.66 182.11"/><polygon class="cls-4" points="343.64 701.3 283.61 723.41 236.22 775.02 343.64 701.3"/><polygon class="cls-4" points="500.55 555.97 368.91 529.64 418.41 610.73 500.55 555.97"/><polygon class="cls-4" points="459.48 455.92 412.09 447.5 368.91 529.64 459.48 455.92"/><polygon class="cls-4" points="482.65 410.64 465.8 402.21 459.48 455.92 482.65 410.64"/><polygon class="cls-4" points="465.8 402.21 412.09 447.5 459.48 455.92 465.8 402.21"/><polygon class="cls-4" points="465.8 402.21 435.26 323.23 412.09 447.5 465.8 402.21"/><polygon class="cls-4" points="435.26 323.23 344.69 331.65 412.09 447.5 435.26 323.23"/><polygon class="cls-4" points="427.89 622.31 399.45 623.37 405.77 667.6 427.89 622.31"/><polygon class="cls-4" points="434.2 152.63 419.46 90.49 367.86 158.94 434.2 152.63"/><polygon class="cls-4" points="434.2 152.63 367.86 158.94 399.45 204.23 434.2 152.63"/><polygon class="cls-4" points="435.26 323.23 426.83 290.58 344.69 331.65 435.26 323.23"/><polygon class="cls-4" points="412.09 447.5 344.69 331.65 316.26 451.71 412.09 447.5"/><polygon class="cls-4" points="418.41 610.73 368.91 529.64 399.45 623.37 418.41 610.73"/><polygon class="cls-4" points="426.83 290.58 399.45 204.23 337.32 207.39 426.83 290.58"/><polygon class="cls-4" points="426.83 290.58 337.32 207.39 344.69 331.65 426.83 290.58"/><polygon class="cls-4" points="427.89 622.31 418.41 610.73 399.45 623.37 427.89 622.31"/><polygon class="cls-4" points="412.09 447.5 328.89 479.09 368.91 529.64 412.09 447.5"/><polygon class="cls-4" points="419.46 90.49 285.72 96.81 367.86 158.94 419.46 90.49"/><polygon class="cls-4" points="412.09 447.5 316.26 451.71 328.89 479.09 412.09 447.5"/><polygon class="cls-4" points="399.45 623.37 368.91 529.64 318.36 651.8 399.45 623.37"/><polygon class="cls-4" points="405.77 667.6 399.45 623.37 318.36 651.8 405.77 667.6"/><polygon class="cls-4" points="405.77 667.6 318.36 651.8 343.64 701.3 405.77 667.6"/><polygon class="cls-4" points="399.45 204.23 367.86 158.94 337.32 207.39 399.45 204.23"/><polygon class="cls-4" points="343.64 701.3 318.36 651.8 313.1 671.81 343.64 701.3"/><polygon class="cls-4" points="368.91 529.64 272.03 508.58 318.36 651.8 368.91 529.64"/><polygon class="cls-4" points="344.69 331.65 337.32 207.39 293.09 194.75 344.69 331.65"/><polygon class="cls-4" points="367.86 158.94 285.72 96.81 293.09 194.75 367.86 158.94"/><polygon class="cls-4" points="368.91 529.64 328.89 479.09 272.03 508.58 368.91 529.64"/><polygon class="cls-4" points="367.86 158.94 293.09 194.75 337.32 207.39 367.86 158.94"/><polygon class="cls-4" points="316.26 451.71 205.68 302.17 161.45 372.73 316.26 451.71"/><polygon class="cls-4" points="343.64 701.3 313.1 671.81 302.57 689.71 343.64 701.3"/><polygon class="cls-4" points="343.64 701.3 302.57 689.71 283.61 723.41 343.64 701.3"/><polygon class="cls-4" points="344.69 331.65 205.68 302.17 316.26 451.71 344.69 331.65"/><polygon class="cls-4" points="344.69 331.65 293.09 194.75 205.68 302.17 344.69 331.65"/><polygon class="cls-4" points="318.36 651.8 272.03 508.58 290.98 670.76 318.36 651.8"/><polygon class="cls-4" points="290.98 670.76 272.03 508.58 186.72 667.6 290.98 670.76"/><polygon class="cls-4" points="293.09 194.75 258.34 186.33 205.68 302.17 293.09 194.75"/><polygon class="cls-4" points="293.09 194.75 285.72 96.81 258.34 186.33 293.09 194.75"/><polygon class="cls-4" points="328.89 479.09 316.26 451.71 272.03 508.58 328.89 479.09"/><polygon class="cls-4" points="316.26 451.71 161.45 372.73 260.44 500.15 316.26 451.71"/><polygon class="cls-4" points="316.26 451.71 260.44 500.15 272.03 508.58 316.26 451.71"/><polygon class="cls-4" points="318.36 651.8 290.98 670.76 313.1 671.81 318.36 651.8"/><polygon class="cls-4" points="313.1 671.81 290.98 670.76 302.57 689.71 313.1 671.81"/><polygon class="cls-4" points="302.57 689.71 290.98 670.76 283.61 723.41 302.57 689.71"/><polygon class="cls-4" points="260.44 500.15 130.91 519.11 186.72 667.6 260.44 500.15"/><polygon class="cls-4" points="272.03 508.58 260.44 500.15 186.72 667.6 272.03 508.58"/><polygon class="cls-4" points="285.72 96.81 178.3 163.16 258.34 186.33 285.72 96.81"/><polygon class="cls-4" points="290.98 670.76 208.84 725.52 283.61 723.41 290.98 670.76"/><polygon class="cls-4" points="290.98 670.76 186.72 667.6 208.84 725.52 290.98 670.76"/><polygon class="cls-4" points="260.44 500.15 161.45 372.73 130.91 469.61 260.44 500.15"/><polygon class="cls-4" points="283.61 723.41 208.84 725.52 236.22 775.02 283.61 723.41"/><polygon class="cls-4" points="258.34 186.33 142.49 220.03 205.68 302.17 258.34 186.33"/><polygon class="cls-4" points="205.68 302.17 142.49 220.03 164.61 289.53 205.68 302.17"/><polygon class="cls-4" points="258.34 186.33 178.3 163.16 142.49 220.03 258.34 186.33"/><polygon class="cls-4" points="260.44 500.15 130.91 469.61 130.91 519.11 260.44 500.15"/><polygon class="cls-4" points="236.22 775.02 208.84 725.52 220.42 782.39 236.22 775.02"/><polygon class="cls-4" points="178.3 163.16 93 46.26 100.37 139.99 178.3 163.16"/><polygon class="cls-4" points="186.72 667.6 130.91 519.11 79.31 570.71 186.72 667.6"/><polygon class="cls-4" points="220.42 782.39 208.84 725.52 83.52 785.55 220.42 782.39"/><polygon class="cls-4" points="205.68 302.17 164.61 289.53 161.45 372.73 205.68 302.17"/><polygon class="cls-4" points="208.84 725.52 186.72 667.6 83.52 785.55 208.84 725.52"/><polygon class="cls-4" points="83.52 785.55 51.92 648.64 44.55 756.06 83.52 785.55"/><polygon class="cls-4" points="164.61 289.53 95.1 320.07 161.45 372.73 164.61 289.53"/><polygon class="cls-4" points="186.72 667.6 51.92 648.64 83.52 785.55 186.72 667.6"/><polygon class="cls-4" points="186.72 667.6 79.31 570.71 51.92 648.64 186.72 667.6"/><polygon class="cls-4" points="161.45 372.73 111.95 466.45 130.91 469.61 161.45 372.73"/><polygon class="cls-4" points="161.45 372.73 86.68 376.94 111.95 466.45 161.45 372.73"/><polygon class="cls-4" points="178.3 163.16 100.37 139.99 142.49 220.03 178.3 163.16"/><polygon class="cls-4" points="142.49 220.03 100.37 139.99 110.9 224.24 142.49 220.03"/><polygon class="cls-4" points="161.45 372.73 95.1 320.07 86.68 376.94 161.45 372.73"/><polygon class="cls-4" points="164.61 289.53 142.49 220.03 110.9 224.24 164.61 289.53"/><polygon class="cls-4" points="164.61 289.53 110.9 224.24 95.1 320.07 164.61 289.53"/><polygon class="cls-4" points="79.31 570.71 46.66 606.52 51.92 648.64 79.31 570.71"/><polygon class="cls-4" points="111.95 466.45 86.68 376.94 56.14 427.49 111.95 466.45"/><polygon class="cls-4" points="130.91 469.61 111.95 466.45 130.91 519.11 130.91 469.61"/><polygon class="cls-4" points="130.91 519.11 111.95 466.45 79.31 570.71 130.91 519.11"/><polygon class="cls-4" points="110.9 224.24 22.44 231.61 95.1 320.07 110.9 224.24"/><polygon class="cls-4" points="110.9 224.24 100.37 139.99 29.81 198.96 110.9 224.24"/><polygon class="cls-4" points="93 46.26 83.52 39.94 1.38 59.95 93 46.26"/><polygon class="cls-4" points="95.1 320.07 22.44 231.61 10.85 247.41 95.1 320.07"/><polygon class="cls-4" points="100.37 139.99 93 46.26 1.38 59.95 100.37 139.99"/><polygon class="cls-4" points="111.95 466.45 1.38 537.01 79.31 570.71 111.95 466.45"/><polygon class="cls-4" points="111.95 466.45 56.14 427.49 1.38 537.01 111.95 466.45"/><polygon class="cls-4" points="110.9 224.24 29.81 198.96 22.44 231.61 110.9 224.24"/><polygon class="cls-4" points="51.92 648.64 1.38 709.72 44.55 756.06 51.92 648.64"/><polygon class="cls-4" points="83.52 785.55 44.55 756.06 68.78 785.55 83.52 785.55"/><polygon class="cls-4" points="95.1 320.07 11.91 352.72 86.68 376.94 95.1 320.07"/><polygon class="cls-4" points="100.37 139.99 1.38 59.95 29.81 198.96 100.37 139.99"/><polygon class="cls-4" points="95.1 320.07 10.85 247.41 11.91 352.72 95.1 320.07"/><polygon class="cls-4" points="86.68 376.94 11.91 352.72 56.14 427.49 86.68 376.94"/><polygon class="cls-4" points="56.14 427.49 11.91 352.72 1.38 365.36 56.14 427.49"/><polygon class="cls-4" points="79.31 570.71 39.29 600.2 46.66 606.52 79.31 570.71"/><polygon class="cls-4" points="79.31 570.71 1.38 537.01 39.29 600.2 79.31 570.71"/><polygon class="cls-4" points="51.92 648.64 46.66 606.52 39.29 600.2 51.92 648.64"/><polygon class="cls-4" points="51.92 648.64 39.29 600.2 1.38 709.72 51.92 648.64"/><polygon class="cls-4" points="11.91 352.72 10.85 247.41 1.38 363.25 11.91 352.72"/><polygon class="cls-4" points="11.91 352.72 1.38 363.25 1.38 365.36 11.91 352.72"/><polygon class="cls-4" points="601.65 785.55 220.42 782.39 83.52 785.55 601.65 785.55"/><polygon class="cls-4" points="920.74 785.55 748.03 781.33 619.55 785.55 920.74 785.55"/><polygon class="cls-4" points="1632.65 784.49 1501.01 776.07 1377.79 785.55 1632.65 784.49"/><polygon class="cls-4" points="1840.11 649.7 1840.11 634.95 1771.66 672.86 1840.11 649.7"/><polygon class="cls-4" points="1840.11 718.15 1771.66 672.86 1788.51 720.25 1840.11 718.15"/><polygon class="cls-4" points="1831.69 444.34 1828.53 436.97 1810.62 440.13 1831.69 444.34"/><polygon class="cls-4" points="1793.77 586.51 1721.11 661.28 1771.66 672.86 1793.77 586.51"/><polygon class="cls-4" points="1793.77 586.51 1736.9 571.76 1721.11 661.28 1793.77 586.51"/><polygon class="cls-4" points="1771.66 672.86 1721.11 661.28 1702.15 688.66 1771.66 672.86"/><polygon class="cls-4" points="1732.68 757.99 1669.43 740.31 1632.73 784.67 1732.68 757.99"/><polygon class="cls-4" points="1722.16 737.1 1702.15 688.66 1669.51 740.26 1722.16 737.1"/><polygon class="cls-4" points="1641.07 711.83 1552.61 687.61 1543.13 728.68 1641.07 711.83"/><polygon class="cls-4" points="1632.65 784.49 1543.13 728.68 1501.01 776.07 1632.65 784.49"/><polygon class="cls-4" points="1501.01 776.07 1400.96 776.07 1377.79 785.55 1501.01 776.07"/><polygon class="cls-4" points="1552.61 687.61 1538.92 693.93 1543.13 728.68 1552.61 687.61"/><polygon class="cls-4" points="920.74 785.55 883.88 776.07 748.03 781.33 920.74 785.55"/><polygon class="cls-4" points="1034.48 82.07 987.09 82.07 1004.99 217.92 1034.48 82.07"/><polygon class="cls-4" points="1777.98 228.45 1601.05 263.2 1636.86 355.88 1777.98 228.45"/><polygon class="cls-4" points="1736.9 571.76 1712.68 453.82 1675.82 561.23 1736.9 571.76"/><polygon class="cls-4" points="1736.9 571.76 1675.82 561.23 1662.13 583.35 1736.9 571.76"/><polygon class="cls-4" points="1721.11 661.28 1662.13 583.35 1702.15 688.66 1721.11 661.28"/><polygon class="cls-4" points="1702.15 688.66 1662.13 583.35 1641.07 711.83 1702.15 688.66"/><polygon class="cls-4" points="1672.67 151.57 1641.07 124.19 1568.41 174.74 1672.67 151.57"/><polygon class="cls-4" points="1672.67 151.57 1568.41 174.74 1601.05 263.2 1672.67 151.57"/><polygon class="cls-4" points="1675.82 561.23 1559.98 593.88 1662.13 583.35 1675.82 561.23"/><polygon class="cls-4" points="1601.05 263.2 1568.41 174.74 1562.09 244.25 1601.05 263.2"/><polygon class="cls-4" points="1636.86 355.88 1557.88 279 1567.36 371.67 1636.86 355.88"/><polygon class="cls-4" points="1641.07 711.83 1588.42 626.53 1552.61 687.61 1641.07 711.83"/><polygon class="cls-4" points="1641.07 124.19 1600 91.55 1568.41 174.74 1641.07 124.19"/><polygon class="cls-4" points="1567.36 371.67 1557.88 279 1553.66 363.25 1567.36 371.67"/><polygon class="cls-4" points="1600 91.55 1529.44 41 1568.41 174.74 1600 91.55"/><polygon class="cls-4" points="1557.88 279 1523.12 300.06 1553.66 363.25 1557.88 279"/><polygon class="cls-4" points="1601.05 263.2 1562.09 244.25 1557.88 279 1601.05 263.2"/><polygon class="cls-4" points="1588.42 626.53 1524.18 620.21 1552.61 687.61 1588.42 626.53"/><polygon class="cls-4" points="1568.41 174.74 1529.44 41 1524.18 38.89 1568.41 174.74"/><polygon class="cls-4" points="1568.41 174.74 1524.18 38.89 1415.71 153.68 1568.41 174.74"/><polygon class="cls-4" points="1578.94 441.18 1553.66 363.25 1444.14 422.22 1578.94 441.18"/><polygon class="cls-4" points="1552.61 687.61 1524.18 620.21 1538.92 693.93 1552.61 687.61"/><polygon class="cls-4" points="1568.41 174.74 1415.71 153.68 1562.09 244.25 1568.41 174.74"/><polygon class="cls-4" points="1523.12 300.06 1415.71 153.68 1394.64 269.52 1523.12 300.06"/><polygon class="cls-4" points="1562.09 244.25 1523.12 300.06 1557.88 279 1562.09 244.25"/><polygon class="cls-4" points="1562.09 244.25 1415.71 153.68 1523.12 300.06 1562.09 244.25"/><polygon class="cls-4" points="1553.66 363.25 1523.12 300.06 1444.14 422.22 1553.66 363.25"/><polygon class="cls-4" points="1524.18 38.89 1481 20.99 1415.71 153.68 1524.18 38.89"/><polygon class="cls-4" points="1523.12 300.06 1422.03 412.75 1444.14 422.22 1523.12 300.06"/><polygon class="cls-4" points="1523.12 300.06 1394.64 269.52 1422.03 412.75 1523.12 300.06"/><polygon class="cls-4" points="1444.14 422.22 1436.77 426.44 1424.13 459.08 1444.14 422.22"/><polygon class="cls-4" points="1481 20.99 1328.3 32.57 1415.71 153.68 1481 20.99"/><polygon class="cls-4" points="1422.03 412.75 1394.64 269.52 1378.85 404.32 1422.03 412.75"/><polygon class="cls-4" points="1444.14 422.22 1422.03 412.75 1436.77 426.44 1444.14 422.22"/><polygon class="cls-4" points="1436.77 426.44 1395.7 451.71 1424.13 459.08 1436.77 426.44"/><polygon class="cls-4" points="1436.77 426.44 1422.03 412.75 1395.7 451.71 1436.77 426.44"/><polygon class="cls-4" points="1394.64 269.52 1323.03 392.74 1378.85 404.32 1394.64 269.52"/><polygon class="cls-4" points="1415.71 153.68 1256.69 262.15 1394.64 269.52 1415.71 153.68"/><polygon class="cls-4" points="1422.03 412.75 1378.85 404.32 1395.7 451.71 1422.03 412.75"/><polygon class="cls-4" points="1415.71 153.68 1328.3 32.57 1199.82 135.78 1415.71 153.68"/><polygon class="cls-4" points="1415.71 153.68 1199.82 135.78 1256.69 262.15 1415.71 153.68"/><polygon class="cls-4" points="1394.64 269.52 1254.58 275.84 1323.03 392.74 1394.64 269.52"/><polygon class="cls-4" points="1395.7 451.71 1355.68 520.16 1385.17 517 1395.7 451.71"/><polygon class="cls-4" points="1395.7 451.71 1334.62 506.47 1355.68 520.16 1395.7 451.71"/><polygon class="cls-4" points="1395.7 451.71 1378.85 404.32 1323.03 392.74 1395.7 451.71"/><polygon class="cls-4" points="1395.7 451.71 1323.03 392.74 1334.62 506.47 1395.7 451.71"/><polygon class="cls-4" points="1394.64 269.52 1256.69 262.15 1254.58 275.84 1394.64 269.52"/><polygon class="cls-4" points="1323.03 392.74 1254.58 275.84 1249.32 371.67 1323.03 392.74"/><polygon class="cls-4" points="1334.62 506.47 1323.03 392.74 1257.74 425.38 1334.62 506.47"/><polygon class="cls-4" points="1334.62 506.47 1257.74 425.38 1269.32 496.99 1334.62 506.47"/><polygon class="cls-4" points="1328.3 32.57 1268.27 8.35 1253.53 12.56 1328.3 32.57"/><polygon class="cls-4" points="1328.3 32.57 1253.53 12.56 1199.82 135.78 1328.3 32.57"/><polygon class="cls-4" points="1256.69 262.15 1199.82 135.78 1190.34 225.29 1256.69 262.15"/><polygon class="cls-4" points="1323.03 392.74 1249.32 371.67 1257.74 425.38 1323.03 392.74"/><polygon class="cls-4" points="1253.53 12.56 1154.53 69.43 1199.82 135.78 1253.53 12.56"/><polygon class="cls-4" points="1269.32 496.99 1257.74 425.38 1137.68 545.44 1269.32 496.99"/><polygon class="cls-4" points="1249.32 371.67 1190.34 225.29 1088.19 247.41 1249.32 371.67"/><polygon class="cls-4" points="1253.53 12.56 1151.38 23.09 1154.53 69.43 1253.53 12.56"/><polygon class="cls-4" points="1254.58 275.84 1190.34 225.29 1249.32 371.67 1254.58 275.84"/><polygon class="cls-4" points="1257.74 425.38 1073.44 487.52 1137.68 545.44 1257.74 425.38"/><polygon class="cls-4" points="1257.74 425.38 1249.32 371.67 1056.6 411.69 1257.74 425.38"/><polygon class="cls-4" points="1257.74 425.38 1056.6 411.69 1073.44 487.52 1257.74 425.38"/><polygon class="cls-4" points="1249.32 371.67 1088.19 247.41 1049.22 343.24 1249.32 371.67"/><polygon class="cls-4" points="1256.69 262.15 1190.34 225.29 1254.58 275.84 1256.69 262.15"/><polygon class="cls-4" points="1249.32 371.67 1049.22 343.24 1056.6 411.69 1249.32 371.67"/><polygon class="cls-4" points="1088.19 247.41 1049.22 308.49 1049.22 343.24 1088.19 247.41"/><polygon class="cls-4" points="1190.34 225.29 1156.64 117.87 1098.72 158.94 1190.34 225.29"/><polygon class="cls-4" points="1199.82 135.78 1156.64 117.87 1190.34 225.29 1199.82 135.78"/><polygon class="cls-4" points="1199.82 135.78 1154.53 69.43 1156.64 117.87 1199.82 135.78"/><polygon class="cls-4" points="1137.68 545.44 1073.44 487.52 1113.46 540.17 1137.68 545.44"/><polygon class="cls-4" points="1190.34 225.29 1098.72 158.94 1088.19 247.41 1190.34 225.29"/><polygon class="cls-4" points="1154.53 69.43 1151.38 23.09 1142.95 29.41 1154.53 69.43"/><polygon class="cls-4" points="1154.53 69.43 1130.31 38.89 1079.76 133.67 1154.53 69.43"/><polygon class="cls-4" points="1154.53 69.43 1142.95 29.41 1130.31 38.89 1154.53 69.43"/><polygon class="cls-4" points="1156.64 117.87 1154.53 69.43 1079.76 133.67 1156.64 117.87"/><polygon class="cls-4" points="1156.64 117.87 1079.76 133.67 1098.72 158.94 1156.64 117.87"/><polygon class="cls-4" points="1130.31 38.89 1034.48 82.07 1079.76 133.67 1130.31 38.89"/><polygon class="cls-4" points="1098.72 158.94 1059.75 229.5 1088.19 247.41 1098.72 158.94"/><polygon class="cls-4" points="1088.19 247.41 1038.69 289.53 1049.22 308.49 1088.19 247.41"/><polygon class="cls-4" points="1079.76 133.67 1058.7 229.5 1059.75 229.5 1079.76 133.67"/><polygon class="cls-4" points="1079.76 133.67 1004.99 217.92 1058.7 229.5 1079.76 133.67"/><polygon class="cls-4" points="1098.72 158.94 1079.76 133.67 1059.75 229.5 1098.72 158.94"/><polygon class="cls-4" points="1073.44 487.52 1056.6 411.69 1015.52 435.91 1073.44 487.52"/><polygon class="cls-4" points="1059.75 229.5 1059.75 229.5 1038.69 289.53 1088.19 247.41 1059.75 229.5"/><polygon class="cls-4" points="1079.76 133.67 1034.48 82.07 1004.99 217.92 1079.76 133.67"/><polygon class="cls-4" points="1059.75 229.5 1004.99 217.92 1038.69 289.53 1059.75 229.5"/><polygon class="cls-4" points="1049.22 343.24 1049.22 308.49 968.13 368.51 1049.22 343.24"/><polygon class="cls-4" points="1006.04 751.85 952.34 696.03 1000.78 757.11 1006.04 751.85"/><polygon class="cls-4" points="952.34 696.03 944.97 683.39 937.59 710.78 952.34 696.03"/><polygon class="cls-4" points="773.31 43.1 723.81 87.33 716.44 114.71 773.31 43.1"/><polygon class="cls-4" points="883.88 776.07 772.25 706.56 748.03 781.33 883.88 776.07"/><polygon class="cls-4" points="748.03 781.33 631.14 780.28 619.55 785.55 748.03 781.33"/><polygon class="cls-4" points="772.25 706.56 728.02 619.15 726.97 643.38 772.25 706.56"/><polygon class="cls-4" points="725.92 502.26 702.75 370.62 680.63 486.46 725.92 502.26"/><polygon class="cls-4" points="773.31 43.1 692.22 76.8 723.81 87.33 773.31 43.1"/><polygon class="cls-4" points="773.31 43.1 678.53 62.06 692.22 76.8 773.31 43.1"/><polygon class="cls-4" points="772.25 706.56 623.77 766.59 748.03 781.33 772.25 706.56"/><polygon class="cls-4" points="772.25 706.56 726.97 643.38 623.77 766.59 772.25 706.56"/><polygon class="cls-4" points="748.03 781.33 623.77 766.59 631.14 780.28 748.03 781.33"/><polygon class="cls-4" points="753.3 303.22 606.92 349.56 702.75 370.62 753.3 303.22"/><polygon class="cls-4" points="754.45 303.6 703.9 371 753.39 344.68 754.45 303.6"/><polygon class="cls-4" points="725.92 502.26 680.63 486.46 661.68 545.44 725.92 502.26"/><polygon class="cls-4" points="728.02 619.15 637.46 601.25 726.97 643.38 728.02 619.15"/><polygon class="cls-4" points="726.97 643.38 637.46 601.25 611.13 633.9 726.97 643.38"/><polygon class="cls-4" points="723.81 87.33 692.22 76.8 716.44 114.71 723.81 87.33"/><polygon class="cls-4" points="716.44 114.71 692.22 76.8 706.96 134.72 716.44 114.71"/><polygon class="cls-4" points="706.96 134.72 692.22 76.8 572.16 160 706.96 134.72"/><polygon class="cls-4" points="706.96 134.72 572.16 160 605.86 189.49 706.96 134.72"/><polygon class="cls-4" points="692.22 76.8 678.53 62.06 572.16 160 692.22 76.8"/><polygon class="cls-4" points="678.53 62.06 556.37 83.12 572.16 160 678.53 62.06"/><polygon class="cls-4" points="678.53 62.06 567.95 58.9 556.37 83.12 678.53 62.06"/><polygon class="cls-4" points="623.77 766.59 611.13 633.9 570.06 755.01 623.77 766.59"/><polygon class="cls-4" points="661.68 545.44 622.71 451.71 584.8 577.03 661.68 545.44"/><polygon class="cls-4" points="601.65 785.55 570.06 755.01 236.22 775.02 601.65 785.55"/><polygon class="cls-4" points="622.71 451.71 516.35 542.28 584.8 577.03 622.71 451.71"/><polygon class="cls-4" points="606.92 349.56 544.78 271.63 554.26 336.92 606.92 349.56"/><polygon class="cls-4" points="622.71 451.71 606.92 349.56 534.25 355.88 622.71 451.71"/><polygon class="cls-4" points="623.77 766.59 570.06 755.01 593.23 770.8 623.77 766.59"/><polygon class="cls-4" points="637.46 601.25 584.8 577.03 611.13 633.9 637.46 601.25"/><polygon class="cls-4" points="631.14 780.28 623.77 766.59 619.55 785.55 631.14 780.28"/><polygon class="cls-4" points="611.13 633.9 559.53 608.62 570.06 755.01 611.13 633.9"/><polygon class="cls-4" points="622.71 451.71 534.25 355.88 482.65 410.64 622.71 451.71"/><polygon class="cls-4" points="623.77 766.59 601.65 785.55 619.55 785.55 623.77 766.59"/><polygon class="cls-4" points="623.77 766.59 593.23 770.8 601.65 785.55 623.77 766.59"/><polygon class="cls-4" points="611.13 633.9 584.8 577.03 559.53 608.62 611.13 633.9"/><polygon class="cls-4" points="622.71 451.71 482.65 410.64 516.35 542.28 622.71 451.71"/><polygon class="cls-4" points="516.35 542.28 482.65 410.64 459.48 455.92 516.35 542.28"/><polygon class="cls-4" points="606.92 349.56 554.26 336.92 534.25 355.88 606.92 349.56"/><polygon class="cls-4" points="605.86 189.49 572.16 160 544.78 271.63 605.86 189.49"/><polygon class="cls-4" points="601.65 785.55 593.23 770.8 570.06 755.01 601.65 785.55"/><polygon class="cls-4" points="584.8 577.03 516.35 542.28 559.53 608.62 584.8 577.03"/><polygon class="cls-4" points="559.53 608.62 516.35 542.28 500.55 555.97 559.53 608.62"/><polygon class="cls-4" points="570.06 755.01 405.77 667.6 343.64 701.3 570.06 755.01"/><polygon class="cls-4" points="572.16 160 556.37 83.12 505.82 86.28 572.16 160"/><polygon class="cls-4" points="572.16 160 505.82 86.28 502.66 182.11 572.16 160"/><polygon class="cls-4" points="554.26 336.92 544.78 271.63 508.98 342.19 554.26 336.92"/><polygon class="cls-4" points="567.95 58.9 522.67 73.64 556.37 83.12 567.95 58.9"/><polygon class="cls-4" points="556.37 83.12 522.67 73.64 505.82 86.28 556.37 83.12"/><polygon class="cls-4" points="559.53 608.62 500.55 555.97 427.89 622.31 559.53 608.62"/><polygon class="cls-4" points="508.98 342.19 426.83 290.58 435.26 323.23 508.98 342.19"/><polygon class="cls-4" points="534.25 355.88 508.98 342.19 482.65 410.64 534.25 355.88"/><polygon class="cls-4" points="502.66 182.11 399.45 204.23 426.83 290.58 502.66 182.11"/><polygon class="cls-4" points="508.98 342.19 465.8 402.21 482.65 410.64 508.98 342.19"/><polygon class="cls-4" points="516.35 542.28 459.48 455.92 500.55 555.97 516.35 542.28"/><polygon class="cls-4" points="505.82 86.28 419.46 90.49 434.2 152.63 505.82 86.28"/><polygon class="cls-4" points="502.66 182.11 434.2 152.63 399.45 204.23 502.66 182.11"/><polygon class="cls-4" points="459.48 455.92 412.09 447.5 368.91 529.64 459.48 455.92"/><polygon class="cls-4" points="482.65 410.64 465.8 402.21 459.48 455.92 482.65 410.64"/><polygon class="cls-4" points="465.8 402.21 435.26 323.23 412.09 447.5 465.8 402.21"/><polygon class="cls-4" points="427.89 622.31 399.45 623.37 405.77 667.6 427.89 622.31"/><polygon class="cls-4" points="434.2 152.63 419.46 90.49 367.86 158.94 434.2 152.63"/><polygon class="cls-4" points="434.2 152.63 367.86 158.94 399.45 204.23 434.2 152.63"/><polygon class="cls-4" points="435.26 323.23 426.83 290.58 344.69 331.65 435.26 323.23"/><polygon class="cls-4" points="412.09 447.5 344.69 331.65 316.26 451.71 412.09 447.5"/><polygon class="cls-4" points="418.41 610.73 368.91 529.64 399.45 623.37 418.41 610.73"/><polygon class="cls-4" points="426.83 290.58 399.45 204.23 337.32 207.39 426.83 290.58"/><polygon class="cls-4" points="426.83 290.58 337.32 207.39 344.69 331.65 426.83 290.58"/><polygon class="cls-4" points="427.89 622.31 418.41 610.73 399.45 623.37 427.89 622.31"/><polygon class="cls-4" points="419.46 90.49 285.72 96.81 367.86 158.94 419.46 90.49"/><polygon class="cls-4" points="412.09 447.5 316.26 451.71 328.89 479.09 412.09 447.5"/><polygon class="cls-4" points="399.45 623.37 368.91 529.64 318.36 651.8 399.45 623.37"/><polygon class="cls-4" points="405.77 667.6 399.45 623.37 318.36 651.8 405.77 667.6"/><polygon class="cls-4" points="405.77 667.6 318.36 651.8 343.64 701.3 405.77 667.6"/><polygon class="cls-4" points="399.45 204.23 367.86 158.94 337.32 207.39 399.45 204.23"/><polygon class="cls-4" points="343.64 701.3 318.36 651.8 313.1 671.81 343.64 701.3"/><polygon class="cls-4" points="344.69 331.65 337.32 207.39 293.09 194.75 344.69 331.65"/><polygon class="cls-4" points="367.86 158.94 285.72 96.81 293.09 194.75 367.86 158.94"/><polygon class="cls-4" points="368.91 529.64 328.89 479.09 272.03 508.58 368.91 529.64"/><polygon class="cls-4" points="367.86 158.94 293.09 194.75 337.32 207.39 367.86 158.94"/><polygon class="cls-4" points="316.26 451.71 205.68 302.17 161.45 372.73 316.26 451.71"/><polygon class="cls-4" points="343.64 701.3 313.1 671.81 302.57 689.71 343.64 701.3"/><polygon class="cls-4" points="343.64 701.3 302.57 689.71 283.61 723.41 343.64 701.3"/><polygon class="cls-4" points="344.69 331.65 205.68 302.17 316.26 451.71 344.69 331.65"/><polygon class="cls-4" points="344.69 331.65 293.09 194.75 205.68 302.17 344.69 331.65"/><polygon class="cls-4" points="318.36 651.8 272.03 508.58 290.98 670.76 318.36 651.8"/><polygon class="cls-4" points="293.09 194.75 258.34 186.33 205.68 302.17 293.09 194.75"/><polygon class="cls-4" points="293.09 194.75 285.72 96.81 258.34 186.33 293.09 194.75"/><polygon class="cls-4" points="316.26 451.71 161.45 372.73 260.44 500.15 316.26 451.71"/><polygon class="cls-4" points="316.26 451.71 260.44 500.15 272.03 508.58 316.26 451.71"/><polygon class="cls-4" points="318.36 651.8 290.98 670.76 313.1 671.81 318.36 651.8"/><polygon class="cls-4" points="313.1 671.81 290.98 670.76 302.57 689.71 313.1 671.81"/><polygon class="cls-4" points="302.57 689.71 290.98 670.76 283.61 723.41 302.57 689.71"/><polygon class="cls-4" points="272.03 508.58 260.44 500.15 186.72 667.6 272.03 508.58"/><polygon class="cls-4" points="285.72 96.81 178.3 163.16 258.34 186.33 285.72 96.81"/><polygon class="cls-4" points="290.98 670.76 208.84 725.52 283.61 723.41 290.98 670.76"/><polygon class="cls-4" points="290.98 670.76 186.72 667.6 208.84 725.52 290.98 670.76"/><polygon class="cls-4" points="260.44 500.15 161.45 372.73 130.91 469.61 260.44 500.15"/><polygon class="cls-4" points="258.34 186.33 142.49 220.03 205.68 302.17 258.34 186.33"/><polygon class="cls-4" points="205.68 302.17 142.49 220.03 164.61 289.53 205.68 302.17"/><polygon class="cls-4" points="258.34 186.33 178.3 163.16 142.49 220.03 258.34 186.33"/><polygon class="cls-4" points="260.44 500.15 130.91 469.61 130.91 519.11 260.44 500.15"/><polygon class="cls-4" points="236.22 775.02 208.84 725.52 220.42 782.39 236.22 775.02"/><polygon class="cls-4" points="178.3 163.16 93 46.26 100.37 139.99 178.3 163.16"/><polygon class="cls-4" points="186.72 667.6 130.91 519.11 79.31 570.71 186.72 667.6"/><polygon class="cls-4" points="205.68 302.17 164.61 289.53 161.45 372.73 205.68 302.17"/><polygon class="cls-4" points="83.52 785.55 51.92 648.64 44.55 756.06 83.52 785.55"/><polygon class="cls-4" points="164.61 289.53 95.1 320.07 161.45 372.73 164.61 289.53"/><polygon class="cls-4" points="161.45 372.73 111.95 466.45 130.91 469.61 161.45 372.73"/><polygon class="cls-4" points="161.45 372.73 86.68 376.94 111.95 466.45 161.45 372.73"/><polygon class="cls-4" points="178.3 163.16 100.37 139.99 142.49 220.03 178.3 163.16"/><polygon class="cls-4" points="142.49 220.03 100.37 139.99 110.9 224.24 142.49 220.03"/><polygon class="cls-4" points="161.45 372.73 95.1 320.07 86.68 376.94 161.45 372.73"/><polygon class="cls-4" points="164.61 289.53 142.49 220.03 110.9 224.24 164.61 289.53"/><polygon class="cls-4" points="164.61 289.53 110.9 224.24 95.1 320.07 164.61 289.53"/><polygon class="cls-4" points="79.31 570.71 46.66 606.52 51.92 648.64 79.31 570.71"/><polygon class="cls-4" points="111.95 466.45 86.68 376.94 56.14 427.49 111.95 466.45"/><polygon class="cls-4" points="130.91 469.61 111.95 466.45 130.91 519.11 130.91 469.61"/><polygon class="cls-4" points="130.91 519.11 111.95 466.45 79.31 570.71 130.91 519.11"/><polygon class="cls-4" points="110.9 224.24 22.44 231.61 95.1 320.07 110.9 224.24"/><polygon class="cls-4" points="110.9 224.24 100.37 139.99 29.81 198.96 110.9 224.24"/><polygon class="cls-4" points="93 46.26 83.52 39.94 1.38 59.95 93 46.26"/><polygon class="cls-4" points="95.1 320.07 22.44 231.61 10.85 247.41 95.1 320.07"/><polygon class="cls-4" points="111.95 466.45 1.38 537.01 79.31 570.71 111.95 466.45"/><polygon class="cls-4" points="110.9 224.24 29.81 198.96 22.44 231.61 110.9 224.24"/><polygon class="cls-4" points="83.52 785.55 44.55 756.06 68.78 785.55 83.52 785.55"/><polygon class="cls-4" points="95.1 320.07 11.91 352.72 86.68 376.94 95.1 320.07"/><polygon class="cls-4" points="95.1 320.07 10.85 247.41 11.91 352.72 95.1 320.07"/><polygon class="cls-4" points="56.14 427.49 11.91 352.72 1.38 365.36 56.14 427.49"/><polygon class="cls-4" points="79.31 570.71 39.29 600.2 46.66 606.52 79.31 570.71"/><polygon class="cls-4" points="79.31 570.71 1.38 537.01 39.29 600.2 79.31 570.71"/><polygon class="cls-4" points="51.92 648.64 46.66 606.52 39.29 600.2 51.92 648.64"/><polygon class="cls-4" points="51.92 648.64 39.29 600.2 1.38 709.72 51.92 648.64"/><polygon class="cls-4" points="11.91 352.72 10.85 247.41 1.38 363.25 11.91 352.72"/><polygon class="cls-4" points="11.91 352.72 1.38 363.25 1.38 365.36 11.91 352.72"/><polygon class="cls-4" points="24.35 0.5 83.52 39.94 69.93 0.5 24.35 0.5"/><polygon class="cls-4" points="69.93 0.5 83.52 39.94 112.08 0.5 69.93 0.5"/><polygon class="cls-4" points="112.08 0.5 83.52 39.94 93 46.26 116.59 0.5 112.08 0.5"/><polygon class="cls-4" points="116.59 0.5 93 46.26 186.85 0.5 116.59 0.5"/><polygon class="cls-4" points="186.85 0.5 93 46.26 178.3 163.16 216.57 0.5 186.85 0.5"/><polygon class="cls-4" points="216.57 0.5 178.3 163.16 285.72 96.81 229.91 0.5 216.57 0.5"/><polygon class="cls-4" points="229.91 0.5 285.72 96.81 276.54 0.5 229.91 0.5"/><polygon class="cls-4" points="276.54 0.5 285.72 96.81 360.43 0.5 276.54 0.5"/><polygon class="cls-4" points="380.26 0.5 419.46 90.49 505.78 0.5 380.26 0.5"/><polygon class="cls-4" points="360.43 0.5 285.72 96.81 419.46 90.49 380.26 0.5 360.43 0.5"/><polygon class="cls-4" points="505.78 0.5 419.46 90.49 505.82 86.28 516.77 0.5 505.78 0.5"/><polygon class="cls-4" points="516.77 0.5 505.82 86.28 522.67 73.64 519.1 0.5 516.77 0.5"/><polygon class="cls-4" points="519.1 0.5 522.67 73.64 567.95 58.9 527.59 0.5 519.1 0.5"/><polygon class="cls-4" points="527.59 0.5 567.95 58.9 591.61 0.5 527.59 0.5"/><polygon class="cls-4" points="591.61 0.5 567.95 58.9 631.38 0.5 591.61 0.5"/><polygon class="cls-4" points="636.14 0.5 678.53 62.06 654.92 0.5 636.14 0.5"/><polygon class="cls-4" points="654.92 0.5 678.53 62.06 773.31 43.1 681.91 0.5 654.92 0.5"/><polygon class="cls-4" points="750.46 0.5 851.24 15.72 866.23 0.5 750.46 0.5"/><polygon class="cls-4" points="681.91 0.5 773.31 43.1 851.24 15.72 750.46 0.5 681.91 0.5"/><polygon class="cls-4" points="866.23 0.5 851.24 15.72 894.41 3.08 895.59 0.5 866.23 0.5"/><polygon class="cls-4" points="895.59 0.5 894.41 3.08 897.39 0.5 895.59 0.5"/><polygon class="cls-4" points="897.39 0.5 894.41 3.08 955.5 7.3 951.82 0.5 897.39 0.5"/><polygon class="cls-4" points="951.82 0.5 955.5 7.3 959.41 0.5 951.82 0.5"/><polygon class="cls-4" points="959.53 0.5 955.5 7.3 1031.32 13.62 1023.86 0.5 959.53 0.5"/><polygon class="cls-4" points="1023.86 0.5 1031.32 13.62 1032.93 0.5 1023.86 0.5"/><polygon class="cls-4" points="1034.35 0.5 1031.32 13.62 1055.07 0.5 1034.35 0.5"/><polygon class="cls-4" points="1055.07 0.5 1031.32 13.62 1130.31 38.89 1113.32 0.5 1055.07 0.5"/><polygon class="cls-4" points="1205.28 0.5 1253.53 12.56 1267.29 0.5 1205.28 0.5"/><polygon class="cls-4" points="1128.29 0.5 1151.38 23.09 1253.53 12.56 1205.28 0.5 1128.29 0.5"/><polygon class="cls-4" points="1113.32 0.5 1130.31 38.89 1142.95 29.41 1121.27 0.5 1113.32 0.5"/><polygon class="cls-4" points="1121.27 0.5 1142.95 29.41 1151.38 23.09 1128.29 0.5 1121.27 0.5"/><polygon class="cls-4" points="1267.29 0.5 1253.53 12.56 1268.27 8.35 1275.99 0.5 1267.29 0.5"/><polygon class="cls-4" points="1275.99 0.5 1268.27 8.35 1328.3 32.57 1329.07 0.5 1275.99 0.5"/><polygon class="cls-4" points="1353.03 0.5 1328.3 32.57 1481 20.99 1457.95 0.5 1353.03 0.5"/><polygon class="cls-4" points="1482.99 0.5 1481 20.99 1524.18 38.89 1509.51 0.5 1482.99 0.5"/><polygon class="cls-4" points="1509.51 0.5 1524.18 38.89 1529.44 41 1512.09 0.5 1509.51 0.5"/><polygon class="cls-4" points="1512.09 0.5 1529.44 41 1572.94 0.5 1512.09 0.5"/><polygon class="cls-4" points="1572.94 0.5 1529.44 41 1601.36 0.5 1572.94 0.5"/><polygon class="cls-4" points="1601.36 0.5 1529.44 41 1600 91.55 1630.92 0.5 1601.36 0.5"/><polygon class="cls-4" points="1630.92 0.5 1600 91.55 1660.03 79.96 1642.46 0.5 1630.92 0.5"/><polygon class="cls-4" points="1642.46 0.5 1660.03 79.96 1727.43 69.43 1658.5 0.5 1642.46 0.5"/><polygon class="cls-4" points="1658.5 0.5 1727.43 69.43 1765.34 0.98 1762.45 0.5 1658.5 0.5"/><polygon class="cls-4" points="1769.11 0.5 1765.34 0.98 1811.68 58.9 1836.31 0.5 1769.11 0.5"/><polygon class="cls-4" points="636.14 0.5 631.38 0.5 567.95 58.9 678.53 62.06 636.14 0.5"/></g></g></svg>