<svg xmlns="http://www.w3.org/2000/svg" fill="none" viewBox="0 0 200 200"><path fill="#fff" d="M141 106a2 2 0 1 0 0-3 2 2 0 0 0 0 3Zm27 76a2 2 0 1 0 0-3 2 2 0 0 0 0 3Zm25-89a2 2 0 1 0-1-3 2 2 0 0 0 1 3ZM70 92a2 2 0 1 0 0-3 2 2 0 0 0 0 3Zm5-54a2 2 0 1 0 0-3 2 2 0 0 0 0 3Zm107 1a2 2 0 1 0 0-3 2 2 0 0 0 0 3ZM16 28a2 2 0 1 0 0-4 2 2 0 0 0 0 4Zm52 122a2 2 0 1 0-1-3 2 2 0 0 0 1 3Zm90-74a2 2 0 1 0 0-3 2 2 0 0 0 0 3ZM17 194a2 2 0 1 0 0-3 2 2 0 0 0 0 3ZM37 30a2 2 0 1 0 0-3 2 2 0 0 0 0 3Zm118-10a2 2 0 1 0 0-3 2 2 0 0 0 0 3ZM36 160a2 2 0 1 0 0-3 2 2 0 0 0 0 3Zm126-16a2 2 0 1 0-1-3 2 2 0 0 0 1 3ZM40 73a2 2 0 1 0 0-3 2 2 0 0 0 0 3Zm139-45a2 2 0 1 0 0-3 2 2 0 0 0 0 3ZM15 40a2 2 0 1 0 0-3 2 2 0 0 0 0 3ZM33 7a2 2 0 1 0 0-3 2 2 0 0 0 0 3Zm93 175a2 2 0 1 0 0-3 2 2 0 0 0 0 3Zm-49-54a2 2 0 1 0 0-3 2 2 0 0 0 0 3Zm25-40a2 2 0 1 0-1-3 2 2 0 0 0 1 3Zm64-59a2 2 0 1 0 0-3 2 2 0 0 0 0 3ZM55 129a2 2 0 1 0-1-4 2 2 0 0 0 1 4Zm32-8a2 2 0 1 0 0-3 2 2 0 0 0 0 3ZM4 95a2 2 0 1 0 0-3 2 2 0 0 0 0 3Zm155 77a2 2 0 1 0 0-3 2 2 0 0 0 0 3ZM49 38a2 2 0 1 0 0-3 2 2 0 0 0 0 3Zm90 56a2 2 0 1 0-1-4 2 2 0 0 0 1 4Zm-17 53a2 2 0 1 0 0-3 2 2 0 0 0 0 3Zm32-48a2 2 0 1 0-1-4 2 2 0 0 0 1 4Zm38 72a2 2 0 1 0 0-3 2 2 0 0 0 0 3ZM15 16a2 2 0 1 0 0-3 2 2 0 0 0 0 3ZM133 5a2 2 0 1 0 0-3 2 2 0 0 0 0 3ZM63 82a2 2 0 1 0 0-4 2 2 0 0 0 0 4ZM48 26a2 2 0 1 0 0-3 2 2 0 0 0 0 3Zm122 95a2 2 0 1 0 0-3 2 2 0 0 0 0 3Zm-82 59a2 2 0 1 0 0-3 2 2 0 0 0 0 3Zm78-71a2 2 0 1 0 0-3 2 2 0 0 0 0 3Z"/></svg>