<svg xmlns="http://www.w3.org/2000/svg" fill="none" viewBox="0 0 200 200"><path fill="#fff" d="M196 128a2 2 0 1 0 0-4 2 2 0 0 0 0 4Zm-84-11a2 2 0 1 0 0-3 2 2 0 0 0 0 3ZM5 112a1 1 0 1 0 0-3 1 1 0 0 0 0 3Zm109-16a2 2 0 1 0 0-4 2 2 0 0 0 0 4Zm-67 55a2 2 0 1 0 0-4 2 2 0 0 0 0 4ZM172 23a3 3 0 1 0 0-5 3 3 0 0 0 0 5Zm9 6a2 2 0 1 0 0-4 2 2 0 0 0 0 4ZM27 83a2 2 0 1 0 0-3 2 2 0 0 0 0 3Zm110 84a3 3 0 1 0 0-6 3 3 0 0 0 0 6ZM161 6a2 2 0 1 0 0-4 2 2 0 0 0 0 4Zm-26 182a2 2 0 1 0 0-4 2 2 0 0 0 0 4Zm-34-8a2 2 0 1 0 0-4 2 2 0 0 0 0 4Zm95-99a2 2 0 1 0 0-3 2 2 0 0 0 0 3ZM46 65a2 2 0 1 0 0-5 2 2 0 0 0 0 5ZM14 97a1 1 0 1 0 0-2 1 1 0 0 0 0 2Zm97-24a2 2 0 1 0 0-4 2 2 0 0 0 0 4ZM4 128a1 1 0 1 0 0-3 1 1 0 0 0 0 3Zm27 40a2 2 0 1 0 0-3 2 2 0 0 0 0 3ZM78 15a2 2 0 1 0 0-4 2 2 0 0 0 0 4Zm71 85a2 2 0 1 0 0-5 2 2 0 0 0 0 5Zm-24-45a3 3 0 1 0 0-5 3 3 0 0 0 0 5Zm-62 82a2 2 0 1 0 0-5 2 2 0 0 0 0 5Zm31-48a2 2 0 1 0 0-4 2 2 0 0 0 0 4Zm-11 11a2 2 0 1 0 0-4 2 2 0 0 0 0 4Zm-9 21a2 2 0 1 0 0-4 2 2 0 0 0 0 4Zm115-97a2 2 0 1 0 0-4 2 2 0 0 0 0 4Zm-1 118a2 2 0 1 0 0-4 2 2 0 0 0 0 4Zm-93-36a2 2 0 1 0 0-3 2 2 0 0 0 0 3Zm-73 9a2 2 0 1 0-1-3 2 2 0 0 0 1 3Zm173-52a2 2 0 1 0 0-4 2 2 0 0 0 0 4Zm-87-42a2 2 0 1 0 0-5 2 2 0 0 0 0 5ZM88 151a2 2 0 1 0 0-4 2 2 0 0 0 0 4ZM21 92a1 1 0 1 0 0-3 1 1 0 0 0 0 3Zm128-34a2 2 0 1 0 0-5 2 2 0 0 0 0 5Zm11 132a3 3 0 1 0 0-5 3 3 0 0 0 0 5Zm15-55a3 3 0 1 0 0-6 3 3 0 0 0 0 6Zm-55 13a2 2 0 1 0 0-3 2 2 0 0 0 0 3ZM68 53a3 3 0 1 0 0-5 3 3 0 0 0 0 5ZM4 184a1 1 0 1 0 0-3 1 1 0 0 0 0 3Zm192-7a2 2 0 1 0 0-4 2 2 0 0 0 0 4ZM4 45a1 1 0 1 0 0-2 1 1 0 0 0 0 2Zm12-24a2 2 0 1 0 0-4 2 2 0 0 0 0 4Zm22-6a2 2 0 1 0 0-4 2 2 0 0 0 0 4ZM4 13a2 2 0 1 0 0-3 2 2 0 0 0 0 3Zm155 23a3 3 0 1 0 0-5 3 3 0 0 0 0 5ZM90 60a2 2 0 1 0 0-4 2 2 0 0 0 0 4ZM12 165a1 1 0 1 0 0-3 1 1 0 0 0 0 3Zm34-38a2 2 0 1 0 0-5 2 2 0 0 0 0 5ZM34 48a2 2 0 1 0 0-4 2 2 0 0 0 0 4Zm28 47a2 2 0 1 0 0-4 2 2 0 0 0 0 4Zm72 30a2 2 0 1 0 0-4 2 2 0 0 0 0 4ZM21 146a2 2 0 1 0 0-3 2 2 0 0 0 0 3Zm-10 11a2 2 0 1 0 0-3 2 2 0 0 0 0 3Zm171 27a2 2 0 1 0 0-4 2 2 0 0 0 0 4ZM62 22a2 2 0 1 0 0-5 2 2 0 0 0 0 5Zm14 7a2 2 0 1 0 0-5 2 2 0 0 0 0 5Zm64 6a2 2 0 1 0 0-5 2 2 0 0 0 0 5Zm29 19a3 3 0 1 0 0-5 3 3 0 0 0 0 5ZM54 113a2 2 0 1 0 0-4 2 2 0 0 0 0 4Zm47-69a2 2 0 1 0 0-3 2 2 0 0 0 0 3ZM74 78a2 2 0 1 0 0-4 2 2 0 0 0 0 4Zm2 93a2 2 0 1 0 0-5 2 2 0 0 0 0 5Zm51-92a2 2 0 1 0 0-5 2 2 0 0 0 0 5Zm28 46a2 2 0 1 0 0-5 2 2 0 0 0 0 5ZM45 198a2 2 0 1 0 0-4 2 2 0 0 0 0 4ZM172 90a3 3 0 1 0 0-6 3 3 0 0 0 0 6Zm-56-54a2 2 0 1 0 0-4 2 2 0 0 0 0 4Zm46 113a3 3 0 1 0 0-5 3 3 0 0 0 0 5ZM45 84a2 2 0 1 0-1-4 2 2 0 0 0 1 4Zm-17 99a2 2 0 1 0 0-3 2 2 0 0 0 0 3Zm73-54a2 2 0 1 0 0-3 2 2 0 0 0 0 3Zm-38 56a2 2 0 1 0 0-5 2 2 0 0 0 0 5Zm19 11a2 2 0 1 0 0-5 2 2 0 0 0 0 5Zm-30-22a2 2 0 1 0 0-4 2 2 0 0 0 0 4ZM14 68a2 2 0 1 0 0-3 2 2 0 0 0 0 3Z"/></svg>